<svg width="19" height="22" viewBox="0 0 19 22" fill="none" xmlns="http://www.w3.org/2000/svg">
<path fill-rule="evenodd" clip-rule="evenodd" d="M4.25 9.25V6.625C4.25 5.23261 4.80312 3.89726 5.78769 2.91269C6.77226 1.92812 8.10761 1.375 9.5 1.375C10.8924 1.375 12.2277 1.92812 13.2123 2.91269C14.1969 3.89726 14.75 5.23261 14.75 6.625V9.25H15.625C17.0747 9.25 18.25 10.4253 18.25 11.875V18C18.25 19.4497 17.0747 20.625 15.625 20.625H3.375C1.92525 20.625 0.75 19.4497 0.75 18V11.875C0.75 10.4253 1.92525 9.25 3.375 9.25H4.25ZM7.02513 4.15013C7.6815 3.49375 8.57174 3.125 9.5 3.125C10.4283 3.125 11.3185 3.49375 11.9749 4.15013C12.6313 4.8065 13 5.69674 13 6.625V9.25H6V6.625C6 5.69674 6.36875 4.8065 7.02513 4.15013ZM3.375 11C2.89175 11 2.5 11.3918 2.5 11.875V18C2.5 18.4832 2.89175 18.875 3.375 18.875H15.625C16.1082 18.875 16.5 18.4832 16.5 18V11.875C16.5 11.3918 16.1082 11 15.625 11H3.375Z" fill="#2A2A2A" stroke="white" stroke-linecap="round" stroke-linejoin="round"/>
</svg>
